<?xml version="1.0" encoding="UTF-8"?>
<svg xmlns="http://www.w3.org/2000/svg" xmlns:xlink="http://www.w3.org/1999/xlink" width="20px" height="29px" viewBox="0 0 20 28" version="1.1">
<g id="surface1">
<path style=" stroke:none;fill-rule:nonzero;fill:rgb(5.098039%,4.705882%,13.333333%);fill-opacity:1;" d="M 17.898438 6.511719 L 17.878906 6.503906 L 17.832031 6.488281 C 17.851562 6.503906 17.875 6.511719 17.898438 6.511719 Z M 17.898438 6.511719 "/>
<path style=" stroke:none;fill-rule:nonzero;fill:rgb(5.098039%,4.705882%,13.333333%);fill-opacity:1;" d="M 18.1875 8.511719 L 18.164062 8.519531 Z M 18.1875 8.511719 "/>
<path style=" stroke:none;fill-rule:nonzero;fill:rgb(5.098039%,4.705882%,13.333333%);fill-opacity:1;" d="M 17.90625 6.511719 C 17.902344 6.511719 17.902344 6.507812 17.898438 6.507812 C 17.898438 6.511719 17.898438 6.511719 17.898438 6.511719 C 17.902344 6.511719 17.90625 6.511719 17.90625 6.511719 Z M 17.90625 6.511719 "/>
<path style=" stroke:none;fill-rule:nonzero;fill:rgb(5.098039%,4.705882%,13.333333%);fill-opacity:1;" d="M 18.171875 8.511719 L 18.203125 8.492188 L 18.214844 8.484375 L 18.226562 8.472656 C 18.207031 8.480469 18.1875 8.496094 18.171875 8.511719 Z M 18.171875 8.511719 "/>
<path style=" stroke:none;fill-rule:nonzero;fill:rgb(5.098039%,4.705882%,13.333333%);fill-opacity:1;" d="M 17.957031 6.558594 L 17.921875 6.527344 L 17.902344 6.515625 C 17.914062 6.535156 17.933594 6.550781 17.957031 6.558594 Z M 17.957031 6.558594 "/>
<path style=" stroke:none;fill-rule:nonzero;fill:rgb(5.098039%,4.705882%,13.333333%);fill-opacity:1;" d="M 9.730469 25.96875 C 9.703125 25.980469 9.679688 25.996094 9.664062 26.019531 L 9.683594 26.003906 C 9.695312 25.992188 9.71875 25.976562 9.730469 25.96875 Z M 9.730469 25.96875 "/>
<path style=" stroke:none;fill-rule:nonzero;fill:rgb(5.098039%,4.705882%,13.333333%);fill-opacity:1;" d="M 14.507812 25.058594 C 14.507812 25.03125 14.492188 25.035156 14.496094 25.136719 C 14.496094 25.128906 14.5 25.121094 14.5 25.113281 C 14.503906 25.09375 14.503906 25.078125 14.507812 25.058594 Z M 14.507812 25.058594 "/>
<path style=" stroke:none;fill-rule:nonzero;fill:rgb(5.098039%,4.705882%,13.333333%);fill-opacity:1;" d="M 14.011719 25.96875 C 13.984375 25.980469 13.960938 25.996094 13.945312 26.019531 L 13.964844 26.003906 C 13.980469 25.992188 14 25.976562 14.011719 25.96875 Z M 14.011719 25.96875 "/>
<path style=" stroke:none;fill-rule:nonzero;fill:rgb(5.098039%,4.705882%,13.333333%);fill-opacity:1;" d="M 6.363281 26.183594 C 6.34375 26.167969 6.320312 26.15625 6.292969 26.152344 C 6.316406 26.164062 6.335938 26.171875 6.351562 26.179688 Z M 6.363281 26.183594 "/>
<path style=" stroke:none;fill-rule:nonzero;fill:rgb(5.098039%,4.705882%,13.333333%);fill-opacity:1;" d="M 5.605469 25.484375 C 5.605469 25.453125 5.59375 25.425781 5.578125 25.398438 C 5.589844 25.425781 5.597656 25.453125 5.605469 25.480469 Z M 5.605469 25.484375 "/>
<path style=" stroke:none;fill-rule:nonzero;fill:rgb(100%,86.666667%,0%);fill-opacity:1;" d="M 10.691406 12.933594 C 9.652344 13.363281 8.472656 13.851562 6.945312 13.851562 C 6.304688 13.851562 5.667969 13.765625 5.054688 13.601562 L 6.109375 24.105469 C 6.148438 24.542969 6.355469 24.953125 6.691406 25.25 C 7.023438 25.550781 7.464844 25.714844 7.917969 25.714844 C 7.917969 25.714844 9.417969 25.789062 9.917969 25.789062 C 10.457031 25.789062 12.070312 25.714844 12.070312 25.714844 C 12.527344 25.714844 12.964844 25.550781 13.300781 25.25 C 13.632812 24.953125 13.839844 24.542969 13.878906 24.105469 L 15.011719 12.496094 C 14.503906 12.332031 13.992188 12.21875 13.417969 12.21875 C 12.421875 12.21875 11.621094 12.550781 10.691406 12.933594 Z M 10.691406 12.933594 "/>
<path style=" stroke:none;fill-rule:nonzero;fill:rgb(5.098039%,4.705882%,13.333333%);fill-opacity:1;" d="M 1.78125 8.453125 L 1.796875 8.46875 L 1.808594 8.476562 C 1.800781 8.46875 1.789062 8.460938 1.78125 8.453125 Z M 1.78125 8.453125 "/>
<path style=" stroke:none;fill-rule:nonzero;fill:rgb(5.098039%,4.705882%,13.333333%);fill-opacity:1;" d="M 19.898438 7.484375 L 19.742188 6.707031 C 19.597656 6.007812 19.273438 5.351562 18.535156 5.097656 C 18.296875 5.019531 18.027344 4.984375 17.847656 4.816406 C 17.664062 4.648438 17.609375 4.390625 17.566406 4.148438 C 17.492188 3.710938 17.417969 3.265625 17.335938 2.828125 C 17.269531 2.449219 17.214844 2.023438 17.035156 1.675781 C 16.800781 1.210938 16.316406 0.9375 15.835938 0.757812 C 15.585938 0.667969 15.335938 0.59375 15.078125 0.53125 C 13.875 0.222656 12.609375 0.109375 11.371094 0.046875 C 9.882812 -0.0351562 8.394531 -0.0078125 6.910156 0.117188 C 5.804688 0.214844 4.644531 0.332031 3.59375 0.703125 C 3.210938 0.835938 2.816406 1 2.523438 1.285156 C 2.167969 1.636719 2.050781 2.183594 2.3125 2.621094 C 2.496094 2.933594 2.8125 3.152344 3.144531 3.300781 C 3.578125 3.488281 4.03125 3.628906 4.5 3.726562 C 5.792969 4.003906 7.136719 4.113281 8.460938 4.160156 C 9.929688 4.214844 11.398438 4.167969 12.859375 4.019531 C 13.222656 3.980469 13.582031 3.933594 13.941406 3.882812 C 14.367188 3.820312 14.636719 3.28125 14.511719 2.910156 C 14.363281 2.460938 13.960938 2.289062 13.507812 2.355469 C 13.441406 2.367188 13.375 2.375 13.308594 2.386719 L 13.257812 2.390625 C 13.105469 2.410156 12.953125 2.429688 12.796875 2.445312 C 12.480469 2.476562 12.160156 2.503906 11.839844 2.527344 C 11.125 2.574219 10.410156 2.597656 9.691406 2.597656 C 8.988281 2.597656 8.28125 2.578125 7.578125 2.535156 C 7.257812 2.511719 6.9375 2.488281 6.617188 2.457031 C 6.472656 2.441406 6.328125 2.425781 6.183594 2.410156 L 6.046875 2.390625 L 6.015625 2.386719 L 5.875 2.367188 C 5.582031 2.324219 5.289062 2.277344 5 2.214844 C 4.972656 2.210938 4.945312 2.195312 4.925781 2.171875 C 4.90625 2.148438 4.898438 2.121094 4.898438 2.09375 C 4.898438 2.0625 4.90625 2.035156 4.925781 2.011719 C 4.945312 1.992188 4.972656 1.976562 5 1.96875 L 5.007812 1.96875 C 5.257812 1.917969 5.507812 1.875 5.761719 1.835938 C 5.847656 1.820312 5.929688 1.808594 6.015625 1.796875 L 6.019531 1.796875 C 6.175781 1.785156 6.335938 1.757812 6.492188 1.742188 C 7.863281 1.601562 9.246094 1.554688 10.621094 1.601562 C 11.292969 1.621094 11.960938 1.65625 12.628906 1.722656 C 12.769531 1.738281 12.914062 1.753906 13.054688 1.769531 C 13.109375 1.777344 13.164062 1.78125 13.21875 1.789062 L 13.332031 1.804688 C 13.652344 1.851562 13.972656 1.90625 14.292969 1.972656 C 14.765625 2.074219 15.371094 2.105469 15.582031 2.605469 C 15.648438 2.765625 15.679688 2.941406 15.714844 3.109375 L 15.761719 3.320312 C 15.765625 3.324219 15.765625 3.328125 15.765625 3.332031 C 15.878906 3.835938 15.988281 4.339844 16.101562 4.839844 C 16.109375 4.878906 16.109375 4.917969 16.101562 4.953125 C 16.09375 4.992188 16.078125 5.027344 16.054688 5.058594 C 16.03125 5.085938 16.003906 5.113281 15.96875 5.132812 C 15.9375 5.152344 15.898438 5.167969 15.859375 5.171875 L 15.855469 5.171875 L 15.722656 5.1875 C 15.507812 5.214844 15.296875 5.242188 15.082031 5.265625 C 14.660156 5.3125 14.238281 5.351562 13.816406 5.386719 C 12.976562 5.453125 12.132812 5.496094 11.292969 5.519531 C 10.863281 5.527344 10.433594 5.535156 10.003906 5.535156 C 8.296875 5.53125 6.589844 5.4375 4.890625 5.246094 C 4.707031 5.226562 4.523438 5.203125 4.339844 5.179688 C 4.480469 5.195312 4.234375 5.164062 4.1875 5.160156 C 4.070312 5.144531 3.953125 5.125 3.835938 5.109375 C 3.445312 5.050781 3.054688 4.984375 2.664062 4.921875 C 2.191406 4.847656 1.738281 4.882812 1.308594 5.109375 C 0.957031 5.296875 0.675781 5.582031 0.496094 5.925781 C 0.308594 6.296875 0.253906 6.699219 0.171875 7.09375 C 0.0898438 7.492188 -0.0390625 7.917969 0.0117188 8.324219 C 0.117188 9.203125 0.75 9.917969 1.664062 10.078125 C 2.523438 10.230469 3.386719 10.351562 4.253906 10.453125 C 7.65625 10.859375 11.09375 10.90625 14.503906 10.597656 C 14.785156 10.574219 15.0625 10.546875 15.339844 10.515625 C 15.425781 10.507812 15.511719 10.515625 15.59375 10.542969 C 15.675781 10.574219 15.75 10.617188 15.8125 10.675781 C 15.875 10.738281 15.921875 10.808594 15.953125 10.886719 C 15.980469 10.96875 15.992188 11.050781 15.984375 11.136719 L 15.898438 11.949219 C 15.722656 13.589844 15.546875 15.234375 15.375 16.875 C 15.191406 18.601562 15.007812 20.324219 14.824219 22.050781 C 14.773438 22.535156 14.722656 23.019531 14.671875 23.507812 C 14.621094 23.984375 14.613281 24.476562 14.519531 24.949219 C 14.371094 25.691406 13.851562 26.148438 13.09375 26.316406 C 12.398438 26.46875 11.6875 26.550781 10.976562 26.554688 C 10.1875 26.558594 9.398438 26.527344 8.605469 26.53125 C 7.765625 26.535156 6.730469 26.460938 6.082031 25.851562 C 5.507812 25.320312 5.429688 24.484375 5.351562 23.761719 C 5.246094 22.804688 5.144531 21.847656 5.042969 20.894531 L 4.472656 15.578125 L 4.101562 12.140625 C 4.09375 12.082031 4.089844 12.027344 4.082031 11.96875 C 4.039062 11.558594 3.738281 11.15625 3.265625 11.179688 C 2.859375 11.195312 2.398438 11.527344 2.445312 11.96875 L 2.722656 14.519531 L 3.289062 19.792969 C 3.449219 21.289062 3.613281 22.789062 3.773438 24.289062 C 3.804688 24.574219 3.832031 24.863281 3.867188 25.148438 C 4.042969 26.71875 5.28125 27.5625 6.816406 27.800781 C 7.710938 27.941406 8.628906 27.96875 9.535156 27.984375 C 10.699219 28 11.878906 28.042969 13.023438 27.839844 C 14.71875 27.539062 15.996094 26.441406 16.175781 24.742188 C 16.226562 24.25 16.28125 23.757812 16.332031 23.265625 C 16.503906 21.640625 16.675781 20.015625 16.847656 18.390625 L 17.410156 13.078125 L 17.667969 10.644531 C 17.683594 10.523438 17.734375 10.410156 17.820312 10.320312 C 17.90625 10.230469 18.015625 10.171875 18.140625 10.148438 C 18.625 10.058594 19.089844 9.902344 19.433594 9.542969 C 19.984375 8.972656 20.09375 8.230469 19.898438 7.484375 Z M 1.640625 8.007812 C 1.644531 8.003906 1.632812 8.066406 1.625 8.09375 C 1.625 8.050781 1.628906 8.015625 1.640625 8.007812 Z M 1.6875 8.363281 C 1.691406 8.359375 1.703125 8.375 1.714844 8.390625 C 1.695312 8.375 1.683594 8.363281 1.683594 8.363281 Z M 1.730469 8.421875 C 1.75 8.449219 1.757812 8.464844 1.730469 8.421875 Z M 1.824219 8.492188 L 1.828125 8.492188 C 1.828125 8.496094 1.832031 8.5 1.832031 8.5 C 1.832031 8.5 1.828125 8.496094 1.824219 8.492188 Z M 18.117188 8.382812 C 17.941406 8.542969 17.679688 8.621094 17.421875 8.65625 C 14.507812 9.074219 11.554688 9.285156 8.609375 9.191406 C 6.503906 9.125 4.417969 8.898438 2.332031 8.613281 C 2.128906 8.585938 1.90625 8.546875 1.765625 8.402344 C 1.503906 8.128906 1.632812 7.574219 1.703125 7.242188 C 1.765625 6.9375 1.886719 6.53125 2.257812 6.488281 C 2.84375 6.421875 3.519531 6.660156 4.097656 6.746094 C 4.792969 6.847656 5.492188 6.929688 6.191406 6.992188 C 9.183594 7.253906 12.222656 7.214844 15.203125 6.828125 C 15.746094 6.757812 16.285156 6.675781 16.824219 6.582031 C 17.304688 6.5 17.835938 6.34375 18.125 6.824219 C 18.324219 7.152344 18.351562 7.589844 18.320312 7.960938 C 18.3125 8.121094 18.238281 8.273438 18.117188 8.382812 Z M 18.117188 8.382812 "/>
</g>
</svg>
